<?xml version="1.0" standalone="no"?>
<!DOCTYPE svg PUBLIC "-//W3C//DTD SVG 20010904//EN"
 "http://www.w3.org/TR/2001/REC-SVG-20010904/DTD/svg10.dtd">
<svg version="1.0" xmlns="http://www.w3.org/2000/svg"
 width="289.000000pt" height="181.000000pt" viewBox="0 0 289.000000 181.000000"
 preserveAspectRatio="xMidYMid meet">
<metadata>
Created by potrace 1.15, written by Peter Selinger 2001-2017
</metadata>
<g transform="translate(0.000000,181.000000) scale(0.100000,-0.100000)"
fill="#000000" stroke="none">
<path d="M26 1784 l-26 -27 0 -852 0 -852 26 -27 27 -26 1392 0 1392 0 27 26
26 27 0 852 0 852 -26 27 -27 26 -1392 0 -1392 0 -27 -26z m514 -640 c11 -28
13 -135 4 -183 -6 -29 -9 -31 -50 -31 -37 0 -44 3 -44 19 0 11 -4 23 -10 26
-5 3 -10 37 -10 75 0 38 5 72 10 75 6 3 10 15 10 26 0 16 7 19 40 19 34 0 42
-4 50 -26z m1706 -729 c6 -2 14 -23 18 -47 11 -73 20 -73 45 -3 20 56 27 65
47 65 21 0 24 -3 18 -27 -4 -16 -23 -63 -42 -106 -32 -70 -38 -78 -60 -75 -23
3 -27 11 -45 87 -17 75 -22 85 -48 94 -16 6 -29 14 -29 18 0 7 70 2 96 -6z
m356 9 c3 -3 4 -13 1 -23 -3 -14 -13 -18 -35 -17 -44 2 -45 -18 -3 -42 40 -24
47 -62 18 -94 -22 -25 -139 -27 -129 -2 3 9 6 19 6 24 0 5 13 5 29 0 20 -5 35
-4 47 4 15 11 13 15 -19 35 -20 12 -39 31 -42 41 -8 25 11 59 38 70 25 10 81
13 89 4z m147 -36 c17 -65 30 -131 31 -150 0 -22 -38 -24 -46 -3 -8 20 -73 20
-80 0 -6 -14 -54 -22 -54 -9 0 3 14 36 30 74 17 38 30 72 30 77 0 21 33 53 54
53 19 0 26 -8 35 -42z"/>
</g>
</svg>
