<?xml version="1.0" standalone="no"?>
<!DOCTYPE svg PUBLIC "-//W3C//DTD SVG 20010904//EN"
 "http://www.w3.org/TR/2001/REC-SVG-20010904/DTD/svg10.dtd">
<svg version="1.0" xmlns="http://www.w3.org/2000/svg"
 width="289.000000pt" height="181.000000pt" viewBox="0 0 289.000000 181.000000"
 preserveAspectRatio="xMidYMid meet">
<metadata>
Created by potrace 1.15, written by Peter Selinger 2001-2017
</metadata>
<g transform="translate(0.000000,181.000000) scale(0.100000,-0.100000)"
fill="#000000" stroke="none">
<path d="M25 1784 l-25 -27 0 -673 0 -674 173 0 c196 0 500 21 727 50 164 21
186 23 178 15 -9 -9 -317 -53 -478 -69 -85 -9 -245 -20 -355 -26 -110 -6 -210
-13 -222 -15 -23 -5 -23 -8 -23 -159 0 -149 1 -154 25 -180 l24 -26 1396 0
1396 0 24 26 25 27 0 838 c0 483 -4 848 -9 862 -5 13 -17 31 -26 40 -15 16
-127 17 -1411 17 l-1395 0 -24 -26z m844 -110 c27 -35 26 -59 -4 -89 -32 -33
-68 -32 -94 1 -27 34 -27 64 -1 92 29 31 73 29 99 -4z m19 -461 c-2 -10 -12
-19 -23 -21 -11 -2 -26 -9 -32 -14 -18 -14 -16 -48 2 -48 26 0 16 -29 -11 -32
-23 -3 -30 -13 -59 -93 -26 -72 -36 -91 -54 -93 -28 -4 -27 8 9 102 24 62 28
81 18 88 -10 6 -8 12 8 26 12 9 29 31 38 49 19 38 41 52 79 53 22 0 28 -4 25
-17z m-543 -13 c-19 -5 12 -8 88 -9 l117 -1 0 -25 c0 -23 -4 -25 -41 -25 -24
0 -38 4 -34 10 8 13 -38 30 -64 23 -12 -3 -21 -11 -21 -19 0 -7 -14 -15 -32
-17 l-33 -4 33 -1 c21 -1 35 3 38 13 9 22 61 19 69 -4 5 -16 13 -18 44 -14 35
5 39 3 43 -20 3 -14 0 -31 -5 -36 -8 -8 -3 -11 16 -11 22 0 27 -5 27 -24 0
-23 -3 -24 -60 -22 -33 1 -60 -2 -60 -6 0 -4 27 -8 60 -8 57 0 60 -1 60 -25 0
-29 -26 -46 -72 -44 -32 2 -32 2 7 8 31 5 40 11 41 26 1 15 0 16 -3 3 -4 -16
-18 -18 -106 -18 -77 0 -108 4 -125 16 -33 23 -27 34 18 34 27 0 40 -4 40 -14
0 -17 28 -24 60 -15 22 6 20 7 -12 8 -26 1 -38 6 -43 20 -4 14 -14 18 -45 15
-41 -3 -47 6 -41 54 1 6 -7 12 -19 12 -17 0 -20 6 -20 49 0 74 5 81 59 80 41
-1 43 -2 16 -9z m1019 -87 c-14 -38 -28 -75 -31 -84 -5 -17 -73 -32 -98 -22
-21 8 -26 33 -14 70 12 39 57 66 93 57 19 -4 25 -1 30 20 4 17 13 26 26 26 19
0 19 -2 -6 -67z m261 17 c4 -6 15 -6 30 0 32 12 55 3 55 -21 0 -36 -32 -99
-50 -99 -16 0 -17 3 -2 44 9 25 13 48 9 52 -11 11 -40 -22 -53 -59 -7 -20 -18
-33 -31 -35 -21 -3 -21 -2 -5 42 9 25 13 48 9 52 -11 11 -40 -22 -53 -59 -7
-20 -18 -33 -32 -35 l-21 -3 24 58 c20 49 27 58 49 59 15 1 29 4 33 8 9 9 31
7 38 -4z m628 -825 c8 -8 18 -38 22 -66 8 -58 15 -55 41 20 19 54 32 68 58 58
12 -5 8 -23 -23 -99 -34 -86 -40 -93 -67 -96 -30 -3 -30 -2 -48 74 -13 54 -26
84 -44 101 l-25 23 36 0 c19 0 42 -7 50 -15z m355 -12 c3 -18 -1 -21 -29 -20
-43 3 -47 -17 -9 -40 57 -33 49 -94 -15 -112 -34 -9 -92 -1 -87 12 1 4 2 13 2
20 0 9 12 11 40 9 31 -3 40 -1 40 12 0 8 -13 22 -29 31 -73 37 -33 118 54 112
22 -1 31 -8 33 -24z m158 -73 c21 -95 21 -95 1 -98 -11 -2 -24 3 -29 12 -12
20 -67 21 -74 1 -5 -13 -54 -22 -54 -10 0 15 74 181 84 188 6 4 20 6 31 5 17
-3 24 -19 41 -98z"/>
</g>
</svg>
