<?xml version="1.0" standalone="no"?>
<!DOCTYPE svg PUBLIC "-//W3C//DTD SVG 20010904//EN"
 "http://www.w3.org/TR/2001/REC-SVG-20010904/DTD/svg10.dtd">
<svg version="1.0" xmlns="http://www.w3.org/2000/svg"
 width="289.000000pt" height="181.000000pt" viewBox="0 0 289.000000 181.000000"
 preserveAspectRatio="xMidYMid meet">
<metadata>
Created by potrace 1.15, written by Peter Selinger 2001-2017
</metadata>
<g transform="translate(0.000000,181.000000) scale(0.100000,-0.100000)"
fill="#000000" stroke="none">
<path d="M29 1781 l-29 -29 2 -309 c0 -169 3 -293 5 -275 4 31 6 32 41 26 20
-3 44 -6 52 -8 8 -1 30 -9 49 -19 19 -9 40 -17 48 -17 10 0 13 -29 13 -135 0
-133 0 -135 -22 -135 -13 0 -34 -6 -48 -13 -14 -7 -42 -14 -64 -15 -21 -2 -43
-4 -49 -5 -6 -1 -14 9 -18 23 -4 14 -7 -165 -8 -396 l-1 -421 26 -27 27 -26
1392 0 1392 0 27 26 26 27 -2 411 -3 410 -45 9 c-25 5 -47 12 -50 16 -9 11
-73 33 -130 44 -30 6 -103 11 -162 11 -60 0 -108 3 -108 6 0 3 -18 4 -40 2
-25 -3 -40 0 -40 7 0 7 30 11 85 11 84 0 85 0 85 25 0 14 -4 25 -10 25 -5 0
-10 -4 -10 -10 0 -5 -37 -10 -82 -12 l-83 -3 -3 -65 -3 -65 101 3 c85 3 100 2
100 -11 0 -13 -20 -16 -115 -19 l-115 -3 0 173 0 172 110 0 c90 0 110 -3 110
-15 0 -11 -19 -15 -92 -17 l-93 -3 -3 -60 -3 -61 73 4 c104 4 116 9 26 11
l-78 1 1 43 c1 23 4 33 6 21 3 -16 11 -20 38 -20 24 1 35 6 35 16 0 13 1 13
10 0 8 -13 10 -12 10 3 0 14 9 17 45 17 27 0 45 5 45 11 0 8 4 8 14 0 11 -9
26 -7 65 9 28 11 66 21 83 23 18 2 45 9 60 15 15 6 35 9 43 6 8 -4 21 -2 28 3
6 5 26 10 42 12 56 6 55 2 55 285 -1 274 -2 280 -47 304 -16 9 -372 12 -1403
12 l-1382 0 -29 -29z m989 -607 c36 -25 47 -53 26 -68 -19 -15 -3 -32 21 -23
7 3 16 -2 20 -11 6 -15 7 -15 15 -1 11 19 100 24 100 6 0 -7 5 -5 10 3 5 8 10
36 10 63 0 35 4 47 15 47 13 0 15 -24 15 -157 l0 -158 95 3 c80 3 95 2 95 -11
0 -13 -19 -16 -110 -19 l-110 -3 -1 55 c0 53 -17 120 -18 77 -1 -16 -7 -18
-48 -12 -26 3 -53 11 -60 17 -7 6 -13 7 -13 3 0 -4 -15 6 -33 22 -19 17 -60
37 -95 47 -66 18 -80 39 -44 67 15 13 16 12 4 -3 -11 -14 -10 -18 6 -27 11 -6
30 -8 43 -6 13 3 31 -3 41 -12 10 -9 18 -14 19 -12 7 46 6 66 -7 81 -36 39
-121 30 -141 -15 -17 -36 3 -64 56 -77 71 -18 110 -40 126 -71 22 -41 18 -65
-14 -101 -27 -31 -34 -33 -94 -33 -55 0 -69 4 -91 24 -32 30 -43 61 -25 72 21
13 28 11 22 -9 -2 -10 6 -27 22 -42 50 -47 148 -22 157 39 7 46 -6 59 -84 81
-86 26 -122 59 -114 105 9 48 48 75 109 75 31 0 62 -6 75 -16z m743 -139 c75
-190 73 -185 57 -185 -15 0 -48 60 -48 85 0 12 -16 15 -79 15 l-79 0 -17 -49
c-10 -32 -23 -51 -35 -54 -25 -7 -25 -3 5 71 27 66 32 89 12 57 -11 -18 -24
-20 -142 -21 -71 -1 -138 -5 -147 -9 -16 -6 -18 1 -18 78 l0 85 38 -13 c26 -8
60 -10 112 -4 41 4 104 8 139 8 l63 1 -6 -27 c-3 -16 10 5 29 45 19 41 40 72
46 70 6 -2 38 -71 70 -153z m369 141 c0 -11 -15 -16 -52 -18 l-53 -3 0 -153
c0 -138 -2 -152 -17 -152 -16 0 -18 14 -18 155 l0 155 -55 0 c-51 0 -65 7 -48
23 3 4 60 7 125 7 96 0 118 -3 118 -14z m-1686 -88 c8 -30 7 -127 -1 -157 -5
-21 -10 -23 -49 -18 -24 2 -41 1 -38 -4 3 -5 14 -9 25 -9 10 0 19 -4 19 -10 0
-16 -86 -12 -100 5 -7 8 -17 12 -22 9 -6 -4 -8 2 -6 12 3 15 12 19 45 19 40 0
42 1 36 25 -8 33 -13 38 -13 12 0 -18 -6 -22 -35 -22 -24 0 -35 5 -35 14 0 8
-3 22 -7 31 -5 15 0 17 40 14 46 -4 47 -4 47 26 0 62 9 75 50 75 31 0 39 -4
44 -22z m186 11 c0 -8 4 -9 13 0 8 6 16 9 19 6 2 -3 23 -6 46 -7 23 -1 42 -5
42 -10 0 -4 6 -8 14 -8 8 0 17 -8 20 -17 6 -15 8 -15 23 -1 14 15 18 13 45
-17 18 -21 50 -41 86 -54 53 -18 55 -20 25 -21 -42 -3 -44 -4 -68 -17 -16 -9
-26 -6 -52 12 -18 12 -30 25 -26 28 6 7 0 9 -39 9 -34 1 -78 -13 -78 -24 0 -5
-9 -6 -20 -3 -11 3 -20 3 -20 -2 0 -5 -10 -9 -22 -10 -11 -1 -24 -7 -28 -13
-11 -18 -20 26 -20 98 0 55 2 62 20 62 11 0 20 -5 20 -11z m1642 -788 c4 -1
12 -28 19 -61 6 -33 14 -58 18 -55 3 4 15 32 26 63 19 54 31 63 69 53 2 0 -13
-43 -33 -93 -35 -86 -40 -93 -68 -96 -29 -3 -30 -2 -52 83 -19 71 -27 88 -47
95 -13 5 -24 12 -24 15 0 4 53 2 92 -4z m356 1 c23 -15 3 -40 -30 -38 -42 1
-46 -18 -9 -40 53 -31 53 -82 1 -109 -52 -27 -113 -13 -103 24 4 16 8 17 34 8
24 -9 32 -8 46 5 15 16 14 18 -20 38 -31 18 -37 27 -37 56 0 26 6 37 28 48 30
17 70 20 90 8z m163 -92 c10 -47 18 -88 19 -92 0 -5 -11 -8 -25 -8 -16 0 -25
6 -25 15 0 20 -48 20 -71 -1 -9 -8 -26 -14 -37 -12 -20 3 -20 4 3 58 12 30 30
72 39 93 14 34 19 38 47 35 32 -3 32 -4 50 -88z"/>
</g>
</svg>
